# xmcd
#
# Track frame offsets: 
#        150
#        10151
#        17774
#        26147
#        35824
#        48283
#        56543
#        69281
#        79537
#        86370
#        96573
#        109463
#        121148
#        131954
#        138404
#        144073
#        149052
#        156954
#        159992
#        173582
#        180000
#        191667
#        199255
#        230402
#        252151
#        263634
#        273308
#        284449
#        294734
#
# Disc length: 4054 seconds
#
# Revision: 0
# Processed by: cddbd v1.5.2PL0 Copyright (c) Steve Scherf et al.
# Submitted via: ExactAudioCopy v1.0b1
#
DISCID=9f0fd41d
DTITLE=Jan and Dean  - Collector's Series - Disc 1-Pre Liberty
DYEAR=1900
DGENRE=
TTITLE0=There in the Night (Ver 1)
TTITLE1=There in the Night (Ver 2)
TTITLE2=Jennie Lee - The Barons
TTITLE3=Jennie Lee - Jan and Arnie
TTITLE4=Gotta Getta Date
TTITLE5=I Love Linda
TTITLE6=Jeanette, Get Your Hair Done (ver 1)
TTITLE7=Jeanette, Get Your Hair Done (ver 2)
TTITLE8=Jeanette, Get Your Hair Done (ver 3)
TTITLE9=Jeanette, Get Your Hair Done (ver 4)
TTITLE10=Right from the Start (ver 1)
TTITLE11=Right from the Start (ver 2)
TTITLE12=Right from the Start (ver 3)
TTITLE13=The Beat that Can't be Beat (ver 1)
TTITLE14=The Beat that Can't be Beat (ver 2)
TTITLE15=The Beat that Can't be Beat (ver 3)
TTITLE16=The Beat that Can't be Beat (ver 4)
TTITLE17=I Love Linda (ver 1)
TTITLE18=I Love Linda (ver 2)
TTITLE19=I Love Linda (ver 3)
TTITLE20=I Love Linda (ver 4)
TTITLE21=I Love Linda (ver 5)
TTITLE22=K-JAN(Jan Berry and Don Atfield)
TTITLE23=The Jester's Party
TTITLE24=Baby Talk (alt mix)
TTITLE25=White Tennis Sneakers (alt mix)
TTITLE26=Midsummer Night's Dream
TTITLE27=Midsummer Night's Dream (instr)
TTITLE28=Heart and Soul (stereo alt mix)
EXTD=
EXTT0=
EXTT1=
EXTT2=
EXTT3=
EXTT4=
EXTT5=
EXTT6=
EXTT7=
EXTT8=
EXTT9=
EXTT10=
EXTT11=
EXTT12=
EXTT13=
EXTT14=
EXTT15=
EXTT16=
EXTT17=
EXTT18=
EXTT19=
EXTT20=
EXTT21=
EXTT22=
EXTT23=
EXTT24=
EXTT25=
EXTT26=
EXTT27=
EXTT28=
PLAYORDER=
